<mxfile host="app.diagrams.net" modified="2022-04-13T06:09:41.011Z" agent="5.0 (Windows NT 10.0; Win64; x64) AppleWebKit/537.36 (KHTML, like Gecko) Chrome/100.0.4896.75 Safari/537.36" etag="tP40EuzPj30SzxDBnXF7" version="17.4.3" type="github">
  <diagram id="MwH7AxF10co7rePG-p0v" name="Page-1">
    <mxGraphModel dx="796" dy="472" grid="1" gridSize="10" guides="1" tooltips="1" connect="1" arrows="1" fold="1" page="1" pageScale="1" pageWidth="827" pageHeight="1169" math="0" shadow="0">
      <root>
        <mxCell id="0" />
        <mxCell id="1" parent="0" />
        <mxCell id="Crtv28kXnakuOVykmqlK-1" style="edgeStyle=none;rounded=0;orthogonalLoop=1;jettySize=auto;html=1;exitX=1;exitY=0.5;exitDx=0;exitDy=0;" edge="1" parent="1" source="Crtv28kXnakuOVykmqlK-5" target="Crtv28kXnakuOVykmqlK-6">
          <mxGeometry relative="1" as="geometry" />
        </mxCell>
        <mxCell id="Crtv28kXnakuOVykmqlK-2" value="文件操作" style="edgeLabel;html=1;align=center;verticalAlign=middle;resizable=0;points=[];" vertex="1" connectable="0" parent="Crtv28kXnakuOVykmqlK-1">
          <mxGeometry x="0.2333" y="-2" relative="1" as="geometry">
            <mxPoint x="-14" y="-2" as="offset" />
          </mxGeometry>
        </mxCell>
        <mxCell id="Crtv28kXnakuOVykmqlK-3" style="edgeStyle=none;rounded=0;orthogonalLoop=1;jettySize=auto;html=1;entryX=0.5;entryY=0;entryDx=0;entryDy=0;exitX=0.5;exitY=1;exitDx=0;exitDy=0;" edge="1" parent="1" source="Crtv28kXnakuOVykmqlK-5" target="Crtv28kXnakuOVykmqlK-9">
          <mxGeometry relative="1" as="geometry" />
        </mxCell>
        <mxCell id="Crtv28kXnakuOVykmqlK-4" value="归属" style="edgeLabel;html=1;align=center;verticalAlign=middle;resizable=0;points=[];" vertex="1" connectable="0" parent="Crtv28kXnakuOVykmqlK-3">
          <mxGeometry x="0.1804" y="-2" relative="1" as="geometry">
            <mxPoint x="-16" y="-21" as="offset" />
          </mxGeometry>
        </mxCell>
        <mxCell id="Crtv28kXnakuOVykmqlK-5" value="用户" style="swimlane;fontStyle=0;childLayout=stackLayout;horizontal=1;startSize=26;fillColor=none;horizontalStack=0;resizeParent=1;resizeParentMax=0;resizeLast=0;collapsible=1;marginBottom=0;" vertex="1" parent="1">
          <mxGeometry x="120" y="70" width="70" height="52" as="geometry" />
        </mxCell>
        <mxCell id="Crtv28kXnakuOVykmqlK-6" value="文件" style="swimlane;fontStyle=0;childLayout=stackLayout;horizontal=1;startSize=26;fillColor=none;horizontalStack=0;resizeParent=1;resizeParentMax=0;resizeLast=0;collapsible=1;marginBottom=0;" vertex="1" parent="1">
          <mxGeometry x="310" y="70" width="70" height="52" as="geometry" />
        </mxCell>
        <mxCell id="Crtv28kXnakuOVykmqlK-7" style="edgeStyle=none;rounded=0;orthogonalLoop=1;jettySize=auto;html=1;entryX=0.5;entryY=1;entryDx=0;entryDy=0;exitX=0.5;exitY=0;exitDx=0;exitDy=0;" edge="1" parent="1" source="Crtv28kXnakuOVykmqlK-9" target="Crtv28kXnakuOVykmqlK-6">
          <mxGeometry relative="1" as="geometry" />
        </mxCell>
        <mxCell id="Crtv28kXnakuOVykmqlK-8" value="权限限制" style="edgeLabel;html=1;align=center;verticalAlign=middle;resizable=0;points=[];" vertex="1" connectable="0" parent="Crtv28kXnakuOVykmqlK-7">
          <mxGeometry x="0.2427" relative="1" as="geometry">
            <mxPoint as="offset" />
          </mxGeometry>
        </mxCell>
        <mxCell id="Crtv28kXnakuOVykmqlK-9" value="部门" style="swimlane;fontStyle=0;childLayout=stackLayout;horizontal=1;startSize=26;fillColor=none;horizontalStack=0;resizeParent=1;resizeParentMax=0;resizeLast=0;collapsible=1;marginBottom=0;" vertex="1" parent="1">
          <mxGeometry x="208" y="220" width="64" height="52" as="geometry" />
        </mxCell>
      </root>
    </mxGraphModel>
  </diagram>
</mxfile>
